
<svg width="200" height="200" viewBox="0 0 200 200" fill="none" xmlns="http://www.w3.org/2000/svg">
  <path d="M100 20C55.8172 20 20 55.8172 20 100C20 144.183 55.8172 180 100 180C144.183 180 180 144.183 180 100C180 55.8172 144.183 20 100 20Z" stroke="#6366F1" stroke-width="2"/>
  <path d="M100 40C66.8629 40 40 66.8629 40 100C40 133.137 66.8629 160 100 160C133.137 160 160 133.137 160 100C160 66.8629 133.137 40 100 40Z" stroke="#6366F1" stroke-width="1.5"/>
  <path d="M100 60C77.9086 60 60 77.9086 60 100C60 122.091 77.9086 140 100 140C122.091 140 140 122.091 140 100C140 77.9086 122.091 60 100 60Z" stroke="#6366F1" stroke-width="1"/>
  <path d="M70 70L130 130" stroke="#6366F1" stroke-width="1"/>
  <path d="M130 70L70 130" stroke="#6366F1" stroke-width="1"/>
  <path d="M100 60V140" stroke="#6366F1" stroke-width="1"/>
  <path d="M60 100H140" stroke="#6366F1" stroke-width="1"/>
  <circle cx="100" cy="100" r="5" fill="#6366F1"/>
  <circle cx="70" cy="70" r="3" fill="#6366F1"/>
  <circle cx="130" cy="70" r="3" fill="#6366F1"/>
  <circle cx="70" cy="130" r="3" fill="#6366F1"/>
  <circle cx="130" cy="130" r="3" fill="#6366F1"/>
  <circle cx="100" cy="60" r="3" fill="#6366F1"/>
  <circle cx="100" cy="140" r="3" fill="#6366F1"/>
  <circle cx="60" cy="100" r="3" fill="#6366F1"/>
  <circle cx="140" cy="100" r="3" fill="#6366F1"/>
</svg>
