
<svg width="200" height="200" viewBox="0 0 200 200" fill="none" xmlns="http://www.w3.org/2000/svg">
  <rect x="50" y="50" width="100" height="100" rx="10" stroke="#6366F1" stroke-width="4"/>
  <rect x="70" y="70" width="60" height="60" rx="5" stroke="#6366F1" stroke-width="2"/>
  <line x1="50" y1="80" x2="30" y2="80" stroke="#6366F1" stroke-width="2"/>
  <line x1="50" y1="100" x2="30" y2="100" stroke="#6366F1" stroke-width="2"/>
  <line x1="50" y1="120" x2="30" y2="120" stroke="#6366F1" stroke-width="2"/>
  <line x1="150" y1="80" x2="170" y2="80" stroke="#6366F1" stroke-width="2"/>
  <line x1="150" y1="100" x2="170" y2="100" stroke="#6366F1" stroke-width="2"/>
  <line x1="150" y1="120" x2="170" y2="120" stroke="#6366F1" stroke-width="2"/>
  <line x1="80" y1="50" x2="80" y2="30" stroke="#6366F1" stroke-width="2"/>
  <line x1="100" y1="50" x2="100" y2="30" stroke="#6366F1" stroke-width="2"/>
  <line x1="120" y1="50" x2="120" y2="30" stroke="#6366F1" stroke-width="2"/>
  <line x1="80" y1="150" x2="80" y2="170" stroke="#6366F1" stroke-width="2"/>
  <line x1="100" y1="150" x2="100" y2="170" stroke="#6366F1" stroke-width="2"/>
  <line x1="120" y1="150" x2="120" y2="170" stroke="#6366F1" stroke-width="2"/>
  <circle cx="100" cy="100" r="15" stroke="#6366F1" stroke-width="2"/>
  <circle cx="100" cy="100" r="5" fill="#6366F1"/>
</svg>
